<mxfile host="app.diagrams.net" modified="2023-04-23T14:53:36.360Z" agent="Mozilla/5.0 (X11; Ubuntu; Linux x86_64; rv:109.0) Gecko/20100101 Firefox/109.0" etag="fFzR9_AFhw6sUpiZZAFP" version="21.2.1" type="device">
  <diagram id="OFYTE-6sZhzk4lBBfZ0P" name="Page-1">
    <mxGraphModel dx="2049" dy="431" grid="1" gridSize="10" guides="1" tooltips="1" connect="1" arrows="1" fold="1" page="1" pageScale="1" pageWidth="1169" pageHeight="827" math="0" shadow="0">
      <root>
        <mxCell id="0" />
        <mxCell id="1" parent="0" />
        <mxCell id="OOCy29wrCoP_Iq_nOHRn-1" value="Admin" style="whiteSpace=wrap;html=1;align=center;" parent="1" vertex="1">
          <mxGeometry x="-40" y="250" width="120" height="40" as="geometry" />
        </mxCell>
        <mxCell id="OOCy29wrCoP_Iq_nOHRn-2" value="Facilitator" style="whiteSpace=wrap;html=1;align=center;" parent="1" vertex="1">
          <mxGeometry x="640" y="160" width="120" height="40" as="geometry" />
        </mxCell>
        <mxCell id="OOCy29wrCoP_Iq_nOHRn-3" value="Student" style="whiteSpace=wrap;html=1;align=center;" parent="1" vertex="1">
          <mxGeometry x="640" y="360" width="120" height="40" as="geometry" />
        </mxCell>
        <mxCell id="OOCy29wrCoP_Iq_nOHRn-4" value="1.1&lt;br&gt;Manage result" style="shape=ellipse;html=1;dashed=0;whitespace=wrap;perimeter=ellipsePerimeter;" parent="1" vertex="1">
          <mxGeometry x="290" y="40" width="100" height="75" as="geometry" />
        </mxCell>
        <mxCell id="OOCy29wrCoP_Iq_nOHRn-5" value="1.2&lt;br&gt;Manage facilitator i&lt;br&gt;info" style="shape=ellipse;html=1;dashed=0;whitespace=wrap;perimeter=ellipsePerimeter;" parent="1" vertex="1">
          <mxGeometry x="290" y="222.5" width="100" height="75" as="geometry" />
        </mxCell>
        <mxCell id="OOCy29wrCoP_Iq_nOHRn-6" value="1.3&lt;br&gt;Manage student&amp;nbsp;&lt;br&gt;info" style="shape=ellipse;html=1;dashed=0;whitespace=wrap;perimeter=ellipsePerimeter;" parent="1" vertex="1">
          <mxGeometry x="290" y="390" width="100" height="75" as="geometry" />
        </mxCell>
        <mxCell id="OOCy29wrCoP_Iq_nOHRn-7" value="" style="endArrow=classic;html=1;rounded=0;" parent="1" source="OOCy29wrCoP_Iq_nOHRn-1" target="OOCy29wrCoP_Iq_nOHRn-4" edge="1">
          <mxGeometry width="50" height="50" relative="1" as="geometry">
            <mxPoint x="350" y="260" as="sourcePoint" />
            <mxPoint x="400" y="210" as="targetPoint" />
            <Array as="points">
              <mxPoint x="20" y="78" />
            </Array>
          </mxGeometry>
        </mxCell>
        <mxCell id="OOCy29wrCoP_Iq_nOHRn-8" value="result info" style="edgeLabel;html=1;align=center;verticalAlign=middle;resizable=0;points=[];" parent="OOCy29wrCoP_Iq_nOHRn-7" vertex="1" connectable="0">
          <mxGeometry x="-0.0576" relative="1" as="geometry">
            <mxPoint as="offset" />
          </mxGeometry>
        </mxCell>
        <mxCell id="OOCy29wrCoP_Iq_nOHRn-9" value="" style="endArrow=classic;html=1;rounded=0;" parent="1" source="OOCy29wrCoP_Iq_nOHRn-1" target="OOCy29wrCoP_Iq_nOHRn-5" edge="1">
          <mxGeometry width="50" height="50" relative="1" as="geometry">
            <mxPoint x="30" y="250" as="sourcePoint" />
            <mxPoint x="300" y="137.5" as="targetPoint" />
            <Array as="points" />
          </mxGeometry>
        </mxCell>
        <mxCell id="OOCy29wrCoP_Iq_nOHRn-10" value="facilitator info" style="edgeLabel;html=1;align=center;verticalAlign=middle;resizable=0;points=[];" parent="OOCy29wrCoP_Iq_nOHRn-9" vertex="1" connectable="0">
          <mxGeometry x="-0.0576" relative="1" as="geometry">
            <mxPoint as="offset" />
          </mxGeometry>
        </mxCell>
        <mxCell id="OOCy29wrCoP_Iq_nOHRn-11" value="" style="endArrow=classic;html=1;rounded=0;" parent="1" source="OOCy29wrCoP_Iq_nOHRn-1" target="OOCy29wrCoP_Iq_nOHRn-6" edge="1">
          <mxGeometry width="50" height="50" relative="1" as="geometry">
            <mxPoint x="300" y="260" as="sourcePoint" />
            <mxPoint x="350" y="210" as="targetPoint" />
            <Array as="points">
              <mxPoint x="20" y="430" />
            </Array>
          </mxGeometry>
        </mxCell>
        <mxCell id="OOCy29wrCoP_Iq_nOHRn-12" value="student info" style="edgeLabel;html=1;align=center;verticalAlign=middle;resizable=0;points=[];" parent="OOCy29wrCoP_Iq_nOHRn-11" vertex="1" connectable="0">
          <mxGeometry x="0.2334" y="1" relative="1" as="geometry">
            <mxPoint as="offset" />
          </mxGeometry>
        </mxCell>
        <mxCell id="OOCy29wrCoP_Iq_nOHRn-13" value="marksDB" style="html=1;dashed=0;whitespace=wrap;shape=partialRectangle;right=0;left=0;" parent="1" vertex="1">
          <mxGeometry x="400" y="165" width="120" height="30" as="geometry" />
        </mxCell>
        <mxCell id="OOCy29wrCoP_Iq_nOHRn-16" value="loginDB" style="html=1;dashed=0;whitespace=wrap;shape=partialRectangle;right=0;left=0;" parent="1" vertex="1">
          <mxGeometry x="410" y="330" width="120" height="30" as="geometry" />
        </mxCell>
        <mxCell id="OOCy29wrCoP_Iq_nOHRn-17" value="" style="endArrow=classic;html=1;rounded=0;" parent="1" source="OOCy29wrCoP_Iq_nOHRn-4" target="OOCy29wrCoP_Iq_nOHRn-13" edge="1">
          <mxGeometry width="50" height="50" relative="1" as="geometry">
            <mxPoint x="480" y="110" as="sourcePoint" />
            <mxPoint x="530" y="60" as="targetPoint" />
            <Array as="points">
              <mxPoint x="340" y="180" />
            </Array>
          </mxGeometry>
        </mxCell>
        <mxCell id="OOCy29wrCoP_Iq_nOHRn-18" value="result info" style="edgeLabel;html=1;align=center;verticalAlign=middle;resizable=0;points=[];" parent="OOCy29wrCoP_Iq_nOHRn-17" vertex="1" connectable="0">
          <mxGeometry x="-0.296" y="-2" relative="1" as="geometry">
            <mxPoint as="offset" />
          </mxGeometry>
        </mxCell>
        <mxCell id="OOCy29wrCoP_Iq_nOHRn-19" value="" style="endArrow=classic;html=1;rounded=0;" parent="1" source="OOCy29wrCoP_Iq_nOHRn-13" target="OOCy29wrCoP_Iq_nOHRn-4" edge="1">
          <mxGeometry width="50" height="50" relative="1" as="geometry">
            <mxPoint x="500" y="110" as="sourcePoint" />
            <mxPoint x="550" y="60" as="targetPoint" />
            <Array as="points">
              <mxPoint x="460" y="78" />
            </Array>
          </mxGeometry>
        </mxCell>
        <mxCell id="OOCy29wrCoP_Iq_nOHRn-20" value="result iinfo" style="edgeLabel;html=1;align=center;verticalAlign=middle;resizable=0;points=[];" parent="OOCy29wrCoP_Iq_nOHRn-19" vertex="1" connectable="0">
          <mxGeometry x="-0.5924" y="1" relative="1" as="geometry">
            <mxPoint as="offset" />
          </mxGeometry>
        </mxCell>
        <mxCell id="OOCy29wrCoP_Iq_nOHRn-21" value="" style="endArrow=classic;html=1;rounded=0;" parent="1" source="OOCy29wrCoP_Iq_nOHRn-6" target="OOCy29wrCoP_Iq_nOHRn-16" edge="1">
          <mxGeometry width="50" height="50" relative="1" as="geometry">
            <mxPoint x="300" y="260" as="sourcePoint" />
            <mxPoint x="350" y="210" as="targetPoint" />
            <Array as="points">
              <mxPoint x="450" y="390" />
            </Array>
          </mxGeometry>
        </mxCell>
        <mxCell id="OOCy29wrCoP_Iq_nOHRn-25" value="student info" style="edgeLabel;html=1;align=center;verticalAlign=middle;resizable=0;points=[];" parent="OOCy29wrCoP_Iq_nOHRn-21" vertex="1" connectable="0">
          <mxGeometry x="0.036" relative="1" as="geometry">
            <mxPoint as="offset" />
          </mxGeometry>
        </mxCell>
        <mxCell id="OOCy29wrCoP_Iq_nOHRn-22" value="" style="endArrow=classic;html=1;rounded=0;" parent="1" source="OOCy29wrCoP_Iq_nOHRn-5" target="OOCy29wrCoP_Iq_nOHRn-16" edge="1">
          <mxGeometry width="50" height="50" relative="1" as="geometry">
            <mxPoint x="300" y="260" as="sourcePoint" />
            <mxPoint x="350" y="210" as="targetPoint" />
            <Array as="points">
              <mxPoint x="340" y="330" />
            </Array>
          </mxGeometry>
        </mxCell>
        <mxCell id="OOCy29wrCoP_Iq_nOHRn-24" value="facilitator info" style="edgeLabel;html=1;align=center;verticalAlign=middle;resizable=0;points=[];" parent="OOCy29wrCoP_Iq_nOHRn-22" vertex="1" connectable="0">
          <mxGeometry x="-0.0169" relative="1" as="geometry">
            <mxPoint as="offset" />
          </mxGeometry>
        </mxCell>
        <mxCell id="OOCy29wrCoP_Iq_nOHRn-26" value="" style="endArrow=classic;html=1;rounded=0;" parent="1" source="OOCy29wrCoP_Iq_nOHRn-6" target="OOCy29wrCoP_Iq_nOHRn-3" edge="1">
          <mxGeometry width="50" height="50" relative="1" as="geometry">
            <mxPoint x="395.6219066704175" y="422.15444957449597" as="sourcePoint" />
            <mxPoint x="473.3333333333335" y="370" as="targetPoint" />
            <Array as="points">
              <mxPoint x="700" y="420" />
            </Array>
          </mxGeometry>
        </mxCell>
        <mxCell id="OOCy29wrCoP_Iq_nOHRn-27" value="student info" style="edgeLabel;html=1;align=center;verticalAlign=middle;resizable=0;points=[];" parent="OOCy29wrCoP_Iq_nOHRn-26" vertex="1" connectable="0">
          <mxGeometry x="0.036" relative="1" as="geometry">
            <mxPoint as="offset" />
          </mxGeometry>
        </mxCell>
        <mxCell id="OOCy29wrCoP_Iq_nOHRn-28" value="" style="endArrow=classic;html=1;rounded=0;" parent="1" source="OOCy29wrCoP_Iq_nOHRn-5" target="OOCy29wrCoP_Iq_nOHRn-3" edge="1">
          <mxGeometry width="50" height="50" relative="1" as="geometry">
            <mxPoint x="350" y="307.5" as="sourcePoint" />
            <mxPoint x="420" y="348.0769230769231" as="targetPoint" />
            <Array as="points">
              <mxPoint x="700" y="260" />
            </Array>
          </mxGeometry>
        </mxCell>
        <mxCell id="OOCy29wrCoP_Iq_nOHRn-29" value="facilitator info" style="edgeLabel;html=1;align=center;verticalAlign=middle;resizable=0;points=[];" parent="OOCy29wrCoP_Iq_nOHRn-28" vertex="1" connectable="0">
          <mxGeometry x="-0.0169" relative="1" as="geometry">
            <mxPoint as="offset" />
          </mxGeometry>
        </mxCell>
        <mxCell id="OOCy29wrCoP_Iq_nOHRn-30" value="" style="endArrow=classic;html=1;rounded=0;" parent="1" edge="1">
          <mxGeometry width="50" height="50" relative="1" as="geometry">
            <mxPoint x="332.1209619431356" y="40.468521132737806" as="sourcePoint" />
            <mxPoint x="760" y="380" as="targetPoint" />
            <Array as="points">
              <mxPoint x="332" y="20" />
              <mxPoint x="820" y="30" />
              <mxPoint x="820" y="380" />
            </Array>
          </mxGeometry>
        </mxCell>
        <mxCell id="OOCy29wrCoP_Iq_nOHRn-31" value="result info" style="edgeLabel;html=1;align=center;verticalAlign=middle;resizable=0;points=[];" parent="OOCy29wrCoP_Iq_nOHRn-30" vertex="1" connectable="0">
          <mxGeometry x="-0.296" y="-2" relative="1" as="geometry">
            <mxPoint y="-1" as="offset" />
          </mxGeometry>
        </mxCell>
        <mxCell id="OOCy29wrCoP_Iq_nOHRn-32" value="" style="endArrow=classic;html=1;rounded=0;" parent="1" source="OOCy29wrCoP_Iq_nOHRn-4" target="OOCy29wrCoP_Iq_nOHRn-2" edge="1">
          <mxGeometry width="50" height="50" relative="1" as="geometry">
            <mxPoint x="360" y="135" as="sourcePoint" />
            <mxPoint x="420" y="200" as="targetPoint" />
            <Array as="points">
              <mxPoint x="390" y="40" />
              <mxPoint x="700" y="50" />
            </Array>
          </mxGeometry>
        </mxCell>
        <mxCell id="OOCy29wrCoP_Iq_nOHRn-33" value="result info" style="edgeLabel;html=1;align=center;verticalAlign=middle;resizable=0;points=[];" parent="OOCy29wrCoP_Iq_nOHRn-32" vertex="1" connectable="0">
          <mxGeometry x="-0.296" y="-2" relative="1" as="geometry">
            <mxPoint y="-2" as="offset" />
          </mxGeometry>
        </mxCell>
        <mxCell id="OOCy29wrCoP_Iq_nOHRn-34" value="" style="endArrow=classic;html=1;rounded=0;" parent="1" source="OOCy29wrCoP_Iq_nOHRn-2" target="OOCy29wrCoP_Iq_nOHRn-4" edge="1">
          <mxGeometry width="50" height="50" relative="1" as="geometry">
            <mxPoint x="430" y="260" as="sourcePoint" />
            <mxPoint x="480" y="210" as="targetPoint" />
            <Array as="points">
              <mxPoint x="670" y="78" />
              <mxPoint x="430" y="60" />
            </Array>
          </mxGeometry>
        </mxCell>
        <mxCell id="OOCy29wrCoP_Iq_nOHRn-35" value="result info" style="edgeLabel;html=1;align=center;verticalAlign=middle;resizable=0;points=[];" parent="OOCy29wrCoP_Iq_nOHRn-34" vertex="1" connectable="0">
          <mxGeometry x="-0.0415" y="2" relative="1" as="geometry">
            <mxPoint as="offset" />
          </mxGeometry>
        </mxCell>
        <mxCell id="OOCy29wrCoP_Iq_nOHRn-36" value="" style="endArrow=classic;html=1;rounded=0;" parent="1" source="OOCy29wrCoP_Iq_nOHRn-16" target="OOCy29wrCoP_Iq_nOHRn-6" edge="1">
          <mxGeometry width="50" height="50" relative="1" as="geometry">
            <mxPoint x="395.6219066704175" y="422.15444957449597" as="sourcePoint" />
            <mxPoint x="473.3333333333335" y="370" as="targetPoint" />
            <Array as="points">
              <mxPoint x="350" y="360" />
            </Array>
          </mxGeometry>
        </mxCell>
        <mxCell id="OOCy29wrCoP_Iq_nOHRn-37" value="student info" style="edgeLabel;html=1;align=center;verticalAlign=middle;resizable=0;points=[];" parent="OOCy29wrCoP_Iq_nOHRn-36" vertex="1" connectable="0">
          <mxGeometry x="0.036" relative="1" as="geometry">
            <mxPoint as="offset" />
          </mxGeometry>
        </mxCell>
        <mxCell id="OOCy29wrCoP_Iq_nOHRn-38" value="" style="endArrow=classic;html=1;rounded=0;" parent="1" source="OOCy29wrCoP_Iq_nOHRn-16" target="OOCy29wrCoP_Iq_nOHRn-5" edge="1">
          <mxGeometry width="50" height="50" relative="1" as="geometry">
            <mxPoint x="430" y="280" as="sourcePoint" />
            <mxPoint x="420" y="348.0769230769231" as="targetPoint" />
            <Array as="points">
              <mxPoint x="420" y="300" />
            </Array>
          </mxGeometry>
        </mxCell>
        <mxCell id="OOCy29wrCoP_Iq_nOHRn-39" value="facilitator info" style="edgeLabel;html=1;align=center;verticalAlign=middle;resizable=0;points=[];" parent="OOCy29wrCoP_Iq_nOHRn-38" vertex="1" connectable="0">
          <mxGeometry x="-0.0169" relative="1" as="geometry">
            <mxPoint as="offset" />
          </mxGeometry>
        </mxCell>
        <mxCell id="OOCy29wrCoP_Iq_nOHRn-40" value="Fig: Level 1 DFD of Result Management System" style="text;html=1;align=center;verticalAlign=middle;resizable=0;points=[];autosize=1;strokeColor=none;fillColor=none;" parent="1" vertex="1">
          <mxGeometry x="250" y="490" width="280" height="30" as="geometry" />
        </mxCell>
      </root>
    </mxGraphModel>
  </diagram>
</mxfile>
